<svg width="50" height="50" viewBox="0 0 50 50" fill="none" xmlns="http://www.w3.org/2000/svg">
<rect width="50" height="50" fill="url(#paint0_linear)"/>
<path d="M29.0898 27.7272C29.0898 30.7741 28.4395 33.153 27.1387 34.864C25.8379 36.5632 24.0215 37.4128 21.6895 37.4128C19.627 37.4128 17.9805 36.6218 16.75 35.0397L16.5215 37.0612H11.9512V10.0612H17.0312V19.7468C18.2031 18.3757 19.7441 17.6901 21.6543 17.6901C23.9746 17.6901 25.791 18.5456 27.1035 20.2565C28.4277 21.9557 29.0898 24.3522 29.0898 27.446V27.7272ZM24.0098 27.3581C24.0098 25.4362 23.7051 24.0358 23.0957 23.1569C22.4863 22.2663 21.5781 21.821 20.3711 21.821C18.7539 21.821 17.6406 22.4831 17.0312 23.8073V31.3132C17.6523 32.6491 18.7773 33.3171 20.4062 33.3171C22.0469 33.3171 23.125 32.5085 23.6406 30.8913C23.8867 30.1179 24.0098 28.9401 24.0098 27.3581ZM32.5 34.5651C32.5 33.7565 32.7695 33.1003 33.3086 32.5964C33.8594 32.0925 34.5449 31.8405 35.3652 31.8405C36.1973 31.8405 36.8828 32.0925 37.4219 32.5964C37.9727 33.1003 38.248 33.7565 38.248 34.5651C38.248 35.362 37.9785 36.0124 37.4395 36.5163C36.9004 37.0085 36.209 37.2546 35.3652 37.2546C34.5332 37.2546 33.8477 37.0085 33.3086 36.5163C32.7695 36.0124 32.5 35.362 32.5 34.5651Z" fill="white"/>
<defs>
<linearGradient id="paint0_linear" x1="25" y1="0" x2="25" y2="50" gradientUnits="userSpaceOnUse">
<stop stop-color="#404CFF"/>
<stop offset="0.494792" stop-color="#222EE0"/>
<stop offset="0.984375" stop-color="#0B1494"/>
</linearGradient>
</defs>
</svg>
