<svg width="1920" height="1920" viewBox="0 0 1920 1920" fill="none" xmlns="http://www.w3.org/2000/svg">
<path d="M1117.05 1064.72C1117.05 1181.73 1092.08 1273.08 1042.13 1338.78C992.176 1404.03 922.426 1436.65 832.877 1436.65C753.677 1436.65 690.451 1406.28 643.2 1345.52L634.426 1423.15H458.926V386.35H653.998V758.277C698.999 705.627 758.174 679.3 831.525 679.3C920.625 679.3 990.375 712.151 1040.77 777.85C1091.62 843.099 1117.05 935.125 1117.05 1053.93V1064.72ZM921.977 1050.55C921.977 976.75 910.276 922.975 886.875 889.225C863.474 855.026 828.599 837.926 782.25 837.926C720.15 837.926 677.399 863.351 653.998 914.2V1202.43C677.849 1253.73 721.049 1279.38 783.598 1279.38C846.601 1279.38 888 1248.33 907.799 1186.23C917.249 1156.53 921.977 1111.3 921.977 1050.55ZM1248 1327.3C1248 1296.25 1258.35 1271.05 1279.05 1251.7C1300.2 1232.35 1326.52 1222.68 1358.02 1222.68C1389.98 1222.68 1416.3 1232.35 1437 1251.7C1458.15 1271.05 1468.72 1296.25 1468.72 1327.3C1468.72 1357.9 1458.37 1382.88 1437.68 1402.23C1416.98 1421.13 1390.43 1430.58 1358.02 1430.58C1326.08 1430.58 1299.75 1421.13 1279.05 1402.23C1258.35 1382.88 1248 1357.9 1248 1327.3Z" fill="white"/>
</svg>
